<?xml version="1.0" encoding="utf-8"?>
<!-- Generator: Adobe Illustrator 15.0.0, SVG Export Plug-In . SVG Version: 6.00 Build 0)  -->
<!DOCTYPE svg PUBLIC "-//W3C//DTD SVG 1.1//EN" "http://www.w3.org/Graphics/SVG/1.1/DTD/svg11.dtd">
<svg version="1.1" id="Layer_1" xmlns="http://www.w3.org/2000/svg" xmlns:xlink="http://www.w3.org/1999/xlink" x="0px" y="0px"
	 width="117.375px" height="75px" viewBox="0 0 117.375 75" enable-background="new 0 0 117.375 75" xml:space="preserve">
<g>
	<path fill="#F5B2DB" d="M24.33,7.589c0,1.754-1.422,3.177-3.177,3.177c-1.754,0-3.176-1.423-3.176-3.177
		c0-1.755,1.422-3.177,3.176-3.177C22.907,4.412,24.33,5.833,24.33,7.589"/>
	<path fill="#F5B2DB" d="M69.312,17.199c0,2.367-1.917,4.286-4.285,4.286c-2.367,0-4.287-1.918-4.287-4.286
		c0-2.368,1.92-4.287,4.287-4.287C67.395,12.912,69.312,14.831,69.312,17.199"/>
	<path fill="#FFFFFF" d="M7.432,68.516c-0.055,0.107-0.128,0.227-0.219,0.352c-0.091,0.123-0.206,0.24-0.344,0.35
		c-0.139,0.105-0.303,0.195-0.493,0.262c-0.189,0.068-0.409,0.102-0.659,0.102c-0.257,0-0.509-0.045-0.756-0.131
		c-0.247-0.088-0.467-0.23-0.66-0.432c-0.192-0.199-0.348-0.455-0.466-0.771c-0.119-0.314-0.179-0.691-0.179-1.131
		c0-0.432,0.064-0.809,0.193-1.127c0.129-0.316,0.297-0.582,0.503-0.795c0.207-0.215,0.439-0.371,0.7-0.479
		c0.26-0.104,0.522-0.156,0.786-0.156c0.75,0,1.272,0.338,1.562,1.014h0.021V64.58c0-0.258-0.002-0.518-0.005-0.777
		c-0.004-0.26-0.007-0.51-0.01-0.746c-0.004-0.236-0.008-0.459-0.01-0.67c-0.004-0.209-0.008-0.395-0.016-0.559
		c0.081,0.014,0.159,0.027,0.234,0.037c0.074,0.01,0.148,0.016,0.223,0.016c0.074,0,0.147-0.006,0.218-0.016
		c0.071-0.01,0.15-0.023,0.238-0.037c-0.02,0.219-0.037,0.529-0.051,0.939c-0.012,0.408-0.024,0.859-0.034,1.354
		c-0.011,0.496-0.02,1.002-0.026,1.523s-0.011,0.996-0.011,1.432c0,0.467,0.004,0.885,0.011,1.256
		c0.006,0.375,0.013,0.754,0.021,1.146c-0.136-0.012-0.268-0.02-0.396-0.02c-0.122,0-0.25,0.008-0.385,0.02l0.029-0.963H7.432z
		 M4.677,68.18c0.084,0.264,0.192,0.477,0.324,0.637c0.133,0.156,0.282,0.268,0.452,0.328s0.335,0.092,0.497,0.092
		c0.264,0,0.491-0.066,0.68-0.197c0.188-0.135,0.346-0.305,0.472-0.52c0.125-0.213,0.216-0.453,0.273-0.725
		c0.059-0.27,0.086-0.541,0.086-0.813c0-0.648-0.125-1.145-0.376-1.486c-0.25-0.342-0.618-0.512-1.105-0.512
		c-0.244,0-0.455,0.057-0.634,0.168c-0.18,0.111-0.329,0.268-0.447,0.467c-0.119,0.201-0.207,0.432-0.264,0.701
		c-0.058,0.266-0.086,0.551-0.086,0.857C4.551,67.582,4.592,67.916,4.677,68.18"/>
	<path fill="#FFFFFF" d="M9.821,65.27c0.396-0.475,0.973-0.711,1.73-0.711c0.359,0,0.668,0.057,0.928,0.168
		c0.261,0.111,0.479,0.26,0.654,0.445c0.176,0.186,0.307,0.404,0.391,0.656c0.084,0.248,0.127,0.516,0.127,0.801
		c0,0.068-0.002,0.133-0.005,0.199c-0.004,0.061-0.009,0.129-0.016,0.197c-0.365-0.008-0.728-0.016-1.086-0.021
		s-0.721-0.01-1.086-0.01c-0.223,0-0.444,0.004-0.664,0.01c-0.221,0.006-0.442,0.014-0.665,0.021
		c-0.006,0.033-0.01,0.084-0.01,0.152v0.129c0,0.266,0.039,0.512,0.116,0.742c0.078,0.23,0.192,0.428,0.341,0.594
		c0.149,0.168,0.331,0.297,0.547,0.396c0.216,0.098,0.467,0.146,0.75,0.146c0.135,0,0.275-0.018,0.417-0.057
		c0.142-0.037,0.28-0.088,0.416-0.152c0.135-0.064,0.262-0.141,0.38-0.227c0.118-0.088,0.221-0.184,0.309-0.283l0.051,0.029
		l-0.061,0.496c-0.203,0.164-0.455,0.301-0.756,0.416c-0.301,0.115-0.614,0.172-0.938,0.172c-0.366,0-0.699-0.055-1-0.166
		c-0.301-0.111-0.562-0.275-0.781-0.488c-0.22-0.211-0.39-0.465-0.508-0.756c-0.119-0.291-0.178-0.605-0.178-0.943
		C9.228,66.395,9.427,65.742,9.821,65.27 M10.938,65.055c-0.173,0.117-0.315,0.26-0.426,0.434c-0.112,0.17-0.197,0.361-0.254,0.566
		c-0.058,0.207-0.094,0.4-0.106,0.586c0.209,0.006,0.427,0.012,0.654,0.018c0.226,0.008,0.448,0.012,0.664,0.012
		c0.224,0,0.45-0.004,0.681-0.012c0.23-0.006,0.453-0.012,0.668-0.018c0-0.186-0.015-0.377-0.044-0.58
		c-0.031-0.203-0.092-0.395-0.183-0.568c-0.092-0.176-0.219-0.32-0.38-0.438c-0.163-0.113-0.376-0.172-0.64-0.172
		C11.321,64.883,11.11,64.941,10.938,65.055"/>
	<path fill="#FFFFFF" d="M14.975,64.002c-0.003-0.273-0.008-0.539-0.015-0.803c-0.007-0.266-0.015-0.516-0.025-0.756
		c-0.011-0.242-0.023-0.445-0.037-0.615c0.19,0.035,0.342,0.053,0.458,0.053c0.115,0,0.267-0.018,0.457-0.053
		c-0.014,0.17-0.025,0.373-0.036,0.615c-0.011,0.24-0.019,0.49-0.026,0.756c-0.007,0.264-0.012,0.529-0.015,0.803
		c-0.003,0.27-0.005,0.521-0.005,0.75v1.836c0,0.23,0.002,0.48,0.005,0.752c0.003,0.27,0.008,0.535,0.015,0.801
		c0.007,0.262,0.015,0.516,0.026,0.75c0.01,0.236,0.022,0.434,0.036,0.588c-0.155-0.012-0.309-0.02-0.457-0.02
		c-0.149,0-0.302,0.008-0.458,0.02c0.014-0.154,0.026-0.352,0.037-0.588c0.01-0.234,0.018-0.488,0.025-0.75
		c0.007-0.266,0.012-0.531,0.015-0.801c0.004-0.271,0.005-0.521,0.005-0.752v-1.836C14.98,64.523,14.979,64.271,14.975,64.002"/>
	<path fill="#FFFFFF" d="M17.812,62.529c0.101-0.102,0.223-0.152,0.365-0.152s0.264,0.051,0.365,0.152
		c0.103,0.102,0.152,0.225,0.152,0.365c0,0.143-0.05,0.264-0.152,0.365c-0.101,0.102-0.224,0.152-0.365,0.152
		s-0.264-0.051-0.365-0.152c-0.102-0.102-0.153-0.223-0.153-0.365C17.659,62.754,17.71,62.631,17.812,62.529 M17.786,65.598
		c-0.01-0.334-0.032-0.646-0.065-0.938c0.188,0.033,0.341,0.051,0.456,0.051s0.267-0.018,0.457-0.051
		c-0.033,0.291-0.056,0.604-0.066,0.938c-0.011,0.334-0.015,0.656-0.015,0.957v1.059c0,0.303,0.004,0.623,0.015,0.957
		c0.01,0.336,0.033,0.639,0.066,0.908c-0.156-0.012-0.308-0.02-0.457-0.02s-0.301,0.008-0.456,0.02
		c0.033-0.27,0.056-0.572,0.065-0.908c0.01-0.334,0.015-0.654,0.015-0.957v-1.059C17.801,66.254,17.796,65.932,17.786,65.598"/>
	<path fill="#FFFFFF" d="M20.648,67.084c-0.315-0.797-0.659-1.605-1.031-2.424c0.088,0.014,0.173,0.025,0.255,0.035
		c0.08,0.01,0.165,0.016,0.252,0.016c0.075,0,0.148-0.006,0.224-0.016s0.148-0.021,0.224-0.035c0.208,0.67,0.438,1.328,0.684,1.973
		c0.247,0.646,0.523,1.307,0.828,1.984c0.135-0.277,0.269-0.576,0.4-0.898c0.131-0.32,0.264-0.654,0.396-0.998
		c0.132-0.346,0.26-0.693,0.384-1.041c0.126-0.348,0.25-0.688,0.372-1.02c0.123,0.033,0.226,0.051,0.314,0.051
		s0.193-0.018,0.313-0.051c-0.364,0.818-0.722,1.627-1.075,2.424c-0.352,0.799-0.673,1.598-0.963,2.395
		c-0.102-0.012-0.207-0.02-0.315-0.02c-0.109,0-0.217,0.008-0.324,0.02C21.275,68.682,20.962,67.883,20.648,67.084"/>
	<path fill="#FFFFFF" d="M25.305,65.27c0.396-0.475,0.972-0.711,1.73-0.711c0.358,0,0.667,0.057,0.928,0.168
		c0.26,0.111,0.479,0.26,0.654,0.445c0.176,0.186,0.306,0.404,0.39,0.656c0.085,0.248,0.127,0.516,0.127,0.801
		c0,0.068-0.002,0.133-0.005,0.199c-0.003,0.061-0.008,0.129-0.015,0.197c-0.365-0.008-0.728-0.016-1.085-0.021
		c-0.359-0.006-0.721-0.01-1.086-0.01c-0.222,0-0.444,0.004-0.664,0.01c-0.221,0.006-0.442,0.014-0.665,0.021
		c-0.007,0.033-0.011,0.084-0.011,0.152v0.129c0,0.266,0.04,0.512,0.117,0.742s0.191,0.428,0.34,0.594
		c0.148,0.168,0.331,0.297,0.548,0.396c0.216,0.098,0.466,0.146,0.75,0.146c0.135,0,0.274-0.018,0.417-0.057
		c0.142-0.037,0.28-0.088,0.417-0.152c0.134-0.064,0.262-0.141,0.379-0.227c0.119-0.088,0.222-0.184,0.31-0.283l0.05,0.029
		l-0.061,0.496c-0.203,0.164-0.454,0.301-0.755,0.416c-0.302,0.115-0.615,0.172-0.938,0.172c-0.366,0-0.699-0.055-1-0.166
		c-0.3-0.111-0.562-0.275-0.781-0.488c-0.22-0.211-0.39-0.465-0.508-0.756c-0.119-0.291-0.178-0.605-0.178-0.943
		C24.711,66.395,24.909,65.742,25.305,65.27 M26.421,65.055c-0.172,0.117-0.314,0.26-0.427,0.434
		c-0.11,0.17-0.196,0.361-0.253,0.566c-0.058,0.207-0.093,0.4-0.107,0.586c0.21,0.006,0.429,0.012,0.655,0.018
		c0.227,0.008,0.448,0.012,0.665,0.012c0.224,0,0.45-0.004,0.68-0.012c0.229-0.006,0.453-0.012,0.669-0.018
		c0-0.186-0.015-0.377-0.045-0.58c-0.031-0.203-0.091-0.395-0.184-0.568c-0.091-0.176-0.218-0.32-0.38-0.438
		c-0.163-0.113-0.375-0.172-0.639-0.172C26.805,64.883,26.594,64.941,26.421,65.055"/>
	<path fill="#FFFFFF" d="M32.326,65.381c-0.098-0.035-0.198-0.051-0.299-0.051c-0.162,0-0.308,0.037-0.437,0.111
		c-0.129,0.074-0.237,0.174-0.325,0.299c-0.087,0.125-0.156,0.275-0.203,0.447c-0.047,0.172-0.07,0.357-0.07,0.553v1.115
		c0,0.453,0.001,0.801,0.004,1.041c0.004,0.24,0.015,0.434,0.036,0.582c-0.135-0.012-0.271-0.02-0.406-0.02
		c-0.149,0-0.291,0.008-0.426,0.02c0.02-0.229,0.031-0.541,0.035-0.938c0.003-0.396,0.005-0.881,0.005-1.457V66.76
		c0-0.264-0.002-0.568-0.005-0.914c-0.004-0.344-0.016-0.74-0.035-1.188c0.074,0.016,0.146,0.027,0.212,0.037
		c0.068,0.01,0.14,0.016,0.213,0.016c0.061,0,0.125-0.006,0.193-0.016c0.067-0.01,0.139-0.021,0.213-0.037
		c-0.026,0.246-0.042,0.438-0.045,0.58c-0.003,0.143-0.006,0.277-0.006,0.406l0.02,0.01c0.399-0.73,0.846-1.096,1.34-1.096
		c0.061,0,0.112,0.004,0.157,0.01c0.043,0.006,0.101,0.025,0.168,0.051c-0.034,0.082-0.055,0.203-0.061,0.371
		c-0.007,0.164-0.011,0.316-0.011,0.451l-0.07,0.051C32.49,65.451,32.424,65.416,32.326,65.381"/>
	<path fill="#FFFFFF" d="M34.771,68.779c-0.118-0.289-0.245-0.596-0.379-0.918c-0.136-0.322-0.274-0.648-0.416-0.982
		c-0.142-0.336-0.277-0.65-0.401-0.947c-0.125-0.291-0.235-0.551-0.33-0.775s-0.166-0.387-0.213-0.496
		c0.088,0.014,0.169,0.025,0.244,0.035c0.074,0.01,0.149,0.016,0.223,0.016c0.075,0,0.149-0.006,0.224-0.016
		c0.074-0.01,0.156-0.021,0.244-0.035c0.208,0.648,0.442,1.291,0.7,1.928c0.256,0.635,0.528,1.291,0.812,1.967
		c0.284-0.594,0.555-1.23,0.816-1.906s0.492-1.34,0.695-1.988c0.135,0.033,0.248,0.051,0.335,0.051s0.199-0.018,0.335-0.051
		c-0.048,0.094-0.124,0.256-0.228,0.482c-0.105,0.225-0.231,0.498-0.375,0.811C36.909,66.27,36.75,66.617,36.577,67
		c-0.171,0.381-0.348,0.773-0.526,1.176c-0.179,0.402-0.358,0.801-0.533,1.197c-0.175,0.395-0.339,0.771-0.487,1.127
		c-0.149,0.354-0.279,0.676-0.391,0.965c-0.112,0.285-0.194,0.514-0.248,0.684c-0.136-0.033-0.251-0.051-0.345-0.051
		c-0.096,0-0.21,0.018-0.346,0.051c0.535-0.887,0.987-1.771,1.36-2.658C34.986,69.307,34.889,69.07,34.771,68.779"/>
	<path fill="#FFFFFF" d="M41.275,65.912c0.145-0.32,0.335-0.58,0.574-0.781c0.236-0.199,0.501-0.344,0.795-0.436
		c0.294-0.09,0.587-0.137,0.877-0.137c0.297,0,0.592,0.047,0.883,0.137c0.29,0.092,0.555,0.236,0.792,0.436
		c0.236,0.201,0.427,0.461,0.573,0.781c0.146,0.322,0.219,0.713,0.219,1.172c0,0.461-0.073,0.852-0.219,1.174
		c-0.146,0.32-0.337,0.58-0.573,0.781c-0.237,0.197-0.502,0.338-0.792,0.42c-0.291,0.082-0.585,0.121-0.883,0.121
		c-0.291,0-0.583-0.039-0.877-0.121s-0.56-0.223-0.795-0.42c-0.239-0.201-0.429-0.461-0.574-0.781
		c-0.146-0.322-0.218-0.713-0.218-1.174C41.057,66.625,41.13,66.234,41.275,65.912 M42.025,67.906c0.051,0.264,0.137,0.5,0.26,0.707
		c0.121,0.205,0.284,0.369,0.487,0.492c0.203,0.121,0.453,0.182,0.75,0.182s0.548-0.061,0.75-0.182
		c0.203-0.123,0.366-0.287,0.488-0.492c0.121-0.207,0.208-0.443,0.259-0.707c0.051-0.264,0.076-0.539,0.076-0.822
		s-0.024-0.557-0.076-0.82c-0.051-0.264-0.138-0.5-0.259-0.707c-0.122-0.205-0.285-0.367-0.488-0.49
		c-0.202-0.123-0.453-0.184-0.75-0.184s-0.548,0.061-0.75,0.184c-0.203,0.123-0.366,0.285-0.487,0.49
		c-0.123,0.207-0.208,0.443-0.26,0.707c-0.05,0.264-0.076,0.537-0.076,0.82S41.975,67.643,42.025,67.906"/>
	<path fill="#FFFFFF" d="M48.708,62.518c-0.149,0-0.276,0.031-0.38,0.088c-0.105,0.057-0.191,0.131-0.258,0.223
		c-0.069,0.092-0.118,0.199-0.147,0.32c-0.031,0.121-0.047,0.25-0.047,0.385c0,0.123,0.013,0.299,0.039,0.527
		c0.025,0.23,0.057,0.451,0.093,0.658c0.177,0,0.35,0,0.522-0.004c0.173-0.004,0.347-0.004,0.523-0.004
		c-0.007,0.033-0.012,0.068-0.016,0.102c-0.003,0.033-0.005,0.068-0.005,0.102s0.002,0.068,0.005,0.102
		c0.003,0.033,0.008,0.066,0.016,0.102c-0.176-0.006-0.35-0.014-0.523-0.021c-0.172-0.006-0.346-0.01-0.522-0.01
		c0,0.736,0.002,1.469,0.005,2.197c0.003,0.727,0.016,1.459,0.036,2.195c-0.075-0.012-0.15-0.02-0.226-0.02h-0.215
		c-0.144,0-0.295,0.008-0.452,0.02c0.047-0.736,0.075-1.465,0.081-2.186c0.007-0.721,0.01-1.455,0.01-2.207
		c-0.121,0-0.244,0.004-0.365,0.01c-0.122,0.008-0.244,0.016-0.366,0.021c0.007-0.035,0.012-0.068,0.015-0.102
		c0.004-0.033,0.005-0.068,0.005-0.102s-0.001-0.068-0.005-0.102c-0.003-0.033-0.008-0.068-0.015-0.102c0.122,0,0.245,0,0.37,0.004
		s0.246,0.004,0.36,0.004c0-0.193,0.021-0.406,0.061-0.639c0.041-0.229,0.101-0.455,0.179-0.678c0.077-0.225,0.17-0.436,0.278-0.635
		c0.109-0.201,0.23-0.367,0.366-0.502c0.121-0.121,0.275-0.229,0.46-0.324c0.187-0.094,0.377-0.143,0.573-0.143
		c0.075,0,0.142,0.01,0.204,0.029c-0.007,0.137-0.015,0.271-0.025,0.406c-0.01,0.137-0.015,0.271-0.015,0.406l-0.061,0.029
		C49.102,62.57,48.917,62.518,48.708,62.518"/>
	<path fill="#FFFFFF" d="M52.761,65.598c-0.01-0.334-0.033-0.646-0.066-0.938c0.19,0.033,0.342,0.051,0.457,0.051
		c0.053,0,0.113-0.006,0.176-0.016c0.065-0.01,0.141-0.021,0.23-0.035c-0.021,0.27-0.031,0.541-0.031,0.811h0.02
		c0.357-0.607,0.861-0.912,1.507-0.912c0.169,0,0.334,0.023,0.495,0.074c0.164,0.053,0.309,0.121,0.441,0.209
		c0.132,0.088,0.245,0.195,0.34,0.32c0.093,0.125,0.157,0.258,0.191,0.402h0.021c0.163-0.324,0.385-0.574,0.666-0.748
		c0.281-0.172,0.606-0.258,0.973-0.258c0.223,0,0.43,0.029,0.621,0.092c0.189,0.061,0.353,0.156,0.493,0.281
		c0.14,0.131,0.248,0.297,0.326,0.5c0.078,0.201,0.118,0.447,0.118,0.73c0,0.115-0.005,0.238-0.011,0.375
		c-0.006,0.135-0.012,0.293-0.02,0.471c-0.006,0.18-0.013,0.385-0.02,0.609c-0.008,0.227-0.011,0.488-0.011,0.785
		c0,0.186,0.003,0.359,0.006,0.529c0.002,0.168,0.013,0.352,0.025,0.547c-0.074-0.012-0.149-0.02-0.224-0.02h-0.214h-0.221
		c-0.076,0-0.151,0.008-0.224,0.02c0.02-0.168,0.042-0.51,0.065-1.023c0.024-0.516,0.036-1.232,0.036-2.152
		c0-0.168-0.019-0.328-0.056-0.475c-0.038-0.15-0.097-0.279-0.178-0.387c-0.082-0.107-0.192-0.193-0.328-0.258
		c-0.135-0.064-0.305-0.098-0.508-0.098c-0.246,0-0.452,0.049-0.622,0.143c-0.169,0.094-0.302,0.207-0.398,0.336
		c-0.054,0.072-0.098,0.146-0.126,0.223c-0.031,0.074-0.055,0.188-0.072,0.34c-0.017,0.152-0.029,0.365-0.036,0.639
		c-0.007,0.275-0.009,0.652-0.009,1.131c0,0.289,0.005,0.557,0.015,0.797c0.011,0.24,0.022,0.502,0.036,0.785
		c-0.154-0.012-0.301-0.02-0.442-0.02c-0.14,0-0.289,0.008-0.442,0.02c0.031-0.371,0.051-0.75,0.063-1.135
		c0.014-0.389,0.019-0.764,0.019-1.137c0-0.318-0.001-0.566-0.005-0.746c-0.003-0.18-0.011-0.32-0.025-0.426
		c-0.015-0.104-0.032-0.191-0.055-0.258c-0.025-0.068-0.056-0.145-0.098-0.225c-0.074-0.127-0.19-0.238-0.348-0.33
		s-0.321-0.137-0.49-0.137c-0.445,0-0.771,0.146-0.979,0.436c-0.209,0.291-0.314,0.701-0.314,1.23v0.861
		c0,0.303,0.005,0.623,0.015,0.957c0.01,0.336,0.032,0.639,0.065,0.908c-0.154-0.012-0.308-0.02-0.455-0.02
		c-0.149,0-0.301,0.008-0.457,0.02c0.033-0.27,0.056-0.572,0.066-0.908c0.01-0.334,0.015-0.654,0.015-0.957v-1.059
		C52.776,66.254,52.771,65.932,52.761,65.598"/>
	<path fill="#FFFFFF" d="M61.384,65.27c0.396-0.475,0.973-0.711,1.731-0.711c0.358,0,0.668,0.057,0.928,0.168
		c0.261,0.111,0.479,0.26,0.654,0.445c0.175,0.186,0.306,0.404,0.391,0.656c0.083,0.248,0.126,0.516,0.126,0.801
		c0,0.068,0,0.133-0.004,0.199c-0.004,0.061-0.01,0.129-0.017,0.197c-0.365-0.008-0.726-0.016-1.085-0.021
		c-0.358-0.006-0.72-0.01-1.085-0.01c-0.224,0-0.445,0.004-0.666,0.01c-0.218,0.006-0.44,0.014-0.664,0.021
		c-0.007,0.033-0.011,0.084-0.011,0.152v0.129c0,0.266,0.039,0.512,0.119,0.742c0.077,0.23,0.19,0.428,0.338,0.594
		c0.149,0.168,0.333,0.297,0.549,0.396c0.216,0.098,0.466,0.146,0.75,0.146c0.136,0,0.274-0.018,0.416-0.057
		c0.143-0.037,0.281-0.088,0.417-0.152c0.135-0.064,0.262-0.141,0.382-0.227c0.117-0.088,0.219-0.184,0.308-0.283l0.051,0.029
		l-0.06,0.496c-0.205,0.164-0.456,0.301-0.757,0.416s-0.614,0.172-0.938,0.172c-0.365,0-0.698-0.055-0.999-0.166
		s-0.562-0.275-0.781-0.488c-0.221-0.211-0.39-0.465-0.507-0.756c-0.118-0.291-0.178-0.605-0.178-0.943
		C60.792,66.395,60.99,65.742,61.384,65.27 M62.501,65.055c-0.172,0.117-0.314,0.26-0.426,0.434
		c-0.112,0.17-0.195,0.361-0.253,0.566c-0.057,0.207-0.095,0.4-0.106,0.586c0.209,0.006,0.428,0.012,0.655,0.018
		c0.225,0.008,0.448,0.012,0.663,0.012c0.224,0,0.451-0.004,0.681-0.012c0.229-0.006,0.454-0.012,0.67-0.018
		c0-0.186-0.015-0.377-0.046-0.58c-0.029-0.203-0.09-0.395-0.182-0.568c-0.093-0.176-0.219-0.32-0.381-0.438
		c-0.163-0.113-0.376-0.172-0.639-0.172C62.884,64.883,62.672,64.941,62.501,65.055"/>
	<path fill="#FFFFFF" d="M69.71,68.516c-0.055,0.107-0.126,0.227-0.219,0.352c-0.092,0.123-0.206,0.24-0.345,0.35
		c-0.138,0.105-0.303,0.195-0.491,0.262c-0.189,0.068-0.409,0.102-0.66,0.102c-0.257,0-0.508-0.045-0.754-0.131
		c-0.249-0.088-0.468-0.23-0.661-0.432c-0.194-0.199-0.348-0.455-0.467-0.771c-0.118-0.314-0.177-0.691-0.177-1.131
		c0-0.432,0.064-0.809,0.192-1.127c0.129-0.316,0.295-0.582,0.501-0.795c0.208-0.215,0.44-0.371,0.701-0.479
		c0.261-0.104,0.522-0.156,0.786-0.156c0.752,0,1.272,0.338,1.563,1.014h0.02V64.58c0-0.258,0-0.518-0.005-0.777
		c-0.002-0.26-0.006-0.51-0.01-0.746c-0.003-0.236-0.006-0.459-0.009-0.67c-0.003-0.209-0.009-0.395-0.015-0.559
		c0.081,0.014,0.159,0.027,0.232,0.037c0.076,0.01,0.15,0.016,0.223,0.016c0.077,0,0.149-0.006,0.218-0.016
		c0.072-0.01,0.152-0.023,0.24-0.037c-0.021,0.219-0.037,0.529-0.051,0.939c-0.014,0.408-0.025,0.859-0.037,1.354
		c-0.01,0.496-0.018,1.002-0.024,1.523c-0.007,0.521-0.01,0.996-0.01,1.432c0,0.467,0.003,0.885,0.01,1.256
		c0.006,0.375,0.013,0.754,0.02,1.146c-0.136-0.012-0.267-0.02-0.396-0.02c-0.122,0-0.25,0.008-0.386,0.02l0.032-0.963H69.71z
		 M66.956,68.18c0.085,0.264,0.192,0.477,0.324,0.637c0.132,0.156,0.283,0.268,0.452,0.328c0.17,0.061,0.335,0.092,0.498,0.092
		c0.263,0,0.491-0.066,0.68-0.197c0.189-0.135,0.347-0.305,0.472-0.52c0.126-0.213,0.215-0.453,0.274-0.725
		c0.057-0.27,0.086-0.541,0.086-0.813c0-0.648-0.125-1.145-0.375-1.486c-0.251-0.342-0.619-0.512-1.107-0.512
		c-0.242,0-0.455,0.057-0.633,0.168c-0.181,0.111-0.329,0.268-0.447,0.467c-0.118,0.201-0.206,0.432-0.263,0.701
		c-0.057,0.266-0.086,0.551-0.086,0.857C66.829,67.582,66.871,67.916,66.956,68.18"/>
	<path fill="#FFFFFF" d="M72.198,62.529c0.1-0.102,0.223-0.152,0.364-0.152c0.143,0,0.264,0.051,0.365,0.152
		s0.151,0.225,0.151,0.365c0,0.143-0.05,0.264-0.151,0.365s-0.223,0.152-0.365,0.152c-0.142,0-0.265-0.051-0.364-0.152
		c-0.103-0.102-0.153-0.223-0.153-0.365C72.044,62.754,72.095,62.631,72.198,62.529 M72.171,65.598
		c-0.012-0.334-0.033-0.646-0.065-0.938c0.189,0.033,0.34,0.051,0.456,0.051c0.114,0,0.266-0.018,0.455-0.051
		c-0.033,0.291-0.055,0.604-0.064,0.938c-0.011,0.334-0.017,0.656-0.017,0.957v1.059c0,0.303,0.006,0.623,0.017,0.957
		c0.01,0.336,0.031,0.639,0.064,0.908c-0.153-0.012-0.307-0.02-0.455-0.02c-0.149,0-0.302,0.008-0.456,0.02
		c0.032-0.27,0.054-0.572,0.065-0.908c0.01-0.334,0.015-0.654,0.015-0.957v-1.059C72.186,66.254,72.181,65.932,72.171,65.598"/>
	<path fill="#FFFFFF" d="M74.623,65.949c0.147-0.316,0.343-0.582,0.582-0.787s0.516-0.357,0.827-0.457
		c0.311-0.098,0.629-0.146,0.955-0.146c0.371,0,0.704,0.047,0.999,0.137c0.294,0.092,0.504,0.195,0.634,0.309
		c-0.049,0.102-0.091,0.209-0.128,0.32s-0.068,0.229-0.096,0.352h-0.081c-0.049-0.088-0.111-0.18-0.193-0.27
		c-0.081-0.092-0.178-0.176-0.289-0.254c-0.112-0.078-0.234-0.143-0.37-0.193c-0.135-0.051-0.284-0.076-0.446-0.076
		c-0.306,0-0.566,0.055-0.787,0.168c-0.219,0.111-0.398,0.266-0.537,0.463c-0.139,0.195-0.24,0.426-0.305,0.693
		s-0.097,0.557-0.097,0.869c0,0.695,0.148,1.221,0.447,1.576c0.298,0.354,0.734,0.533,1.309,0.533c0.135,0,0.274-0.018,0.416-0.057
		c0.141-0.037,0.28-0.088,0.416-0.152c0.135-0.064,0.262-0.141,0.38-0.227c0.118-0.088,0.222-0.184,0.311-0.283l0.051,0.029
		c-0.034,0.16-0.054,0.326-0.061,0.496c-0.204,0.164-0.457,0.301-0.757,0.416c-0.301,0.115-0.613,0.172-0.938,0.172
		c-0.291,0-0.584-0.041-0.878-0.127c-0.294-0.084-0.56-0.225-0.796-0.426c-0.238-0.199-0.429-0.457-0.573-0.775
		c-0.146-0.318-0.218-0.707-0.218-1.168C74.399,66.646,74.472,66.266,74.623,65.949"/>
	<path fill="#FFFFFF" d="M80.089,62.529c0.103-0.102,0.225-0.152,0.366-0.152s0.263,0.051,0.364,0.152
		c0.104,0.102,0.153,0.225,0.153,0.365c0,0.143-0.05,0.264-0.153,0.365c-0.102,0.102-0.223,0.152-0.364,0.152
		s-0.264-0.051-0.366-0.152c-0.1-0.102-0.151-0.223-0.151-0.365C79.938,62.754,79.99,62.631,80.089,62.529 M80.064,65.598
		c-0.009-0.334-0.031-0.646-0.065-0.938c0.189,0.033,0.341,0.051,0.457,0.051c0.115,0,0.268-0.018,0.457-0.051
		c-0.035,0.291-0.057,0.604-0.066,0.938s-0.015,0.656-0.015,0.957v1.059c0,0.303,0.005,0.623,0.015,0.957
		c0.01,0.336,0.031,0.639,0.066,0.908c-0.156-0.012-0.309-0.02-0.457-0.02s-0.301,0.008-0.457,0.02
		c0.034-0.27,0.057-0.572,0.065-0.908c0.011-0.334,0.015-0.654,0.015-0.957v-1.059C80.079,66.254,80.075,65.932,80.064,65.598"/>
	<path fill="#FFFFFF" d="M85.65,65.477c-0.199-0.262-0.467-0.391-0.811-0.391c-0.475,0-0.822,0.146-1.041,0.436
		c-0.221,0.291-0.33,0.701-0.33,1.229v0.863c0,0.303,0.006,0.623,0.016,0.957c0.008,0.334,0.031,0.639,0.066,0.908
		c-0.158-0.012-0.311-0.02-0.457-0.02c-0.148,0-0.303,0.008-0.458,0.02c0.035-0.27,0.057-0.574,0.066-0.908
		c0.009-0.334,0.016-0.654,0.016-0.957v-1.057c0-0.305-0.007-0.625-0.016-0.959c-0.01-0.334-0.031-0.646-0.066-0.938
		c0.19,0.033,0.342,0.051,0.458,0.051c0.053,0,0.113-0.006,0.176-0.016c0.064-0.01,0.141-0.021,0.229-0.035
		c-0.02,0.271-0.029,0.541-0.029,0.811h0.021c0.189-0.291,0.416-0.514,0.682-0.674c0.264-0.158,0.58-0.238,0.945-0.238
		c0.189,0,0.381,0.025,0.574,0.082c0.195,0.053,0.369,0.146,0.525,0.277c0.154,0.133,0.283,0.313,0.383,0.539
		c0.098,0.227,0.146,0.516,0.146,0.867c0,0.291-0.008,0.59-0.021,0.896c-0.012,0.309-0.018,0.635-0.018,0.98v0.66
		c0,0.107,0,0.213,0.004,0.318c0.002,0.105,0.008,0.205,0.014,0.299c-0.137-0.012-0.279-0.02-0.432-0.02
		c-0.143,0-0.283,0.008-0.42,0.02c0.014-0.352,0.029-0.713,0.047-1.084c0.016-0.371,0.023-0.756,0.023-1.146v-0.619
		C85.943,66.119,85.846,65.736,85.65,65.477"/>
	<path fill="#FFFFFF" d="M88.455,65.27c0.395-0.475,0.973-0.711,1.73-0.711c0.357,0,0.668,0.057,0.928,0.168
		c0.262,0.111,0.479,0.26,0.654,0.445c0.178,0.186,0.307,0.404,0.391,0.656c0.086,0.248,0.127,0.516,0.127,0.801
		c0,0.068-0.002,0.133-0.004,0.199c-0.004,0.061-0.01,0.129-0.016,0.197c-0.365-0.008-0.727-0.016-1.086-0.021
		s-0.721-0.01-1.086-0.01c-0.223,0-0.443,0.004-0.664,0.01s-0.441,0.014-0.664,0.021c-0.008,0.033-0.01,0.084-0.01,0.152v0.129
		c0,0.266,0.037,0.512,0.115,0.742s0.191,0.428,0.34,0.594c0.15,0.168,0.332,0.297,0.549,0.396c0.215,0.098,0.465,0.146,0.75,0.146
		c0.135,0,0.275-0.018,0.414-0.057c0.143-0.037,0.283-0.088,0.42-0.152c0.133-0.064,0.262-0.141,0.379-0.227
		c0.117-0.088,0.223-0.184,0.309-0.283l0.051,0.029l-0.061,0.496c-0.203,0.164-0.455,0.301-0.756,0.416s-0.613,0.172-0.938,0.172
		c-0.367,0-0.699-0.055-1-0.166s-0.563-0.275-0.781-0.488c-0.221-0.211-0.391-0.465-0.508-0.756s-0.178-0.605-0.178-0.943
		C87.861,66.395,88.061,65.742,88.455,65.27 M89.57,65.055c-0.17,0.117-0.313,0.26-0.426,0.434c-0.111,0.17-0.195,0.361-0.252,0.566
		c-0.059,0.207-0.094,0.4-0.107,0.586c0.211,0.006,0.428,0.012,0.654,0.018c0.227,0.008,0.449,0.012,0.666,0.012
		c0.223,0,0.449-0.004,0.68-0.012c0.229-0.006,0.451-0.012,0.668-0.018c0-0.186-0.016-0.377-0.045-0.58
		c-0.031-0.203-0.092-0.395-0.184-0.568c-0.09-0.176-0.217-0.32-0.379-0.438c-0.162-0.113-0.377-0.172-0.639-0.172
		C89.955,64.883,89.744,64.941,89.57,65.055"/>
	<path fill="#FFFFFF" d="M93.457,68.758c0.07,0.082,0.156,0.158,0.254,0.23c0.1,0.068,0.209,0.129,0.336,0.178
		c0.125,0.047,0.26,0.07,0.402,0.07c0.125,0,0.252-0.02,0.369-0.061s0.223-0.1,0.313-0.172c0.094-0.074,0.166-0.17,0.219-0.285
		c0.055-0.113,0.082-0.248,0.082-0.396c0-0.209-0.061-0.369-0.178-0.482c-0.117-0.111-0.266-0.201-0.441-0.273
		c-0.176-0.07-0.369-0.133-0.578-0.188c-0.211-0.055-0.402-0.129-0.578-0.229c-0.178-0.098-0.324-0.229-0.441-0.391
		c-0.119-0.162-0.18-0.385-0.18-0.668c0-0.225,0.039-0.43,0.113-0.615s0.184-0.348,0.324-0.482c0.143-0.135,0.318-0.24,0.527-0.318
		s0.449-0.117,0.723-0.117c0.25,0,0.459,0.035,0.633,0.102s0.338,0.127,0.492,0.182c-0.055,0.102-0.105,0.227-0.152,0.377
		c-0.047,0.148-0.078,0.264-0.092,0.346h-0.121c-0.055-0.162-0.158-0.309-0.314-0.438s-0.348-0.195-0.578-0.195
		c-0.104,0-0.201,0.02-0.305,0.053c-0.102,0.033-0.193,0.084-0.273,0.152c-0.082,0.068-0.15,0.156-0.203,0.266
		c-0.055,0.107-0.08,0.236-0.08,0.385c0,0.215,0.059,0.383,0.176,0.502s0.266,0.211,0.441,0.277c0.176,0.068,0.369,0.127,0.58,0.178
		c0.209,0.051,0.4,0.121,0.578,0.215c0.174,0.092,0.322,0.219,0.439,0.381c0.119,0.162,0.178,0.385,0.178,0.668
		c0,0.197-0.043,0.389-0.127,0.58c-0.084,0.188-0.205,0.357-0.365,0.512c-0.158,0.152-0.35,0.27-0.572,0.354
		c-0.225,0.086-0.477,0.127-0.762,0.127c-0.311,0-0.572-0.029-0.781-0.09c-0.209-0.063-0.385-0.133-0.527-0.213
		c0.041-0.088,0.084-0.209,0.127-0.361s0.066-0.277,0.066-0.379h0.121C93.334,68.605,93.387,68.678,93.457,68.758"/>
	<path fill="#FFFFFF" d="M64.935,11.107c-3.331,0-6.03,2.7-6.03,6.03s2.699,6.03,6.03,6.03s6.029-2.7,6.029-6.03
		S68.266,11.107,64.935,11.107 M64.935,20.9c-2.079,0-3.763-1.684-3.763-3.763c0-2.079,1.684-3.764,3.763-3.764
		c2.078,0,3.763,1.685,3.763,3.764C68.698,19.217,67.012,20.9,64.935,20.9"/>
	
		<rect x="41.262" y="-5.946" transform="matrix(0.2122 -0.9772 0.9772 0.2122 21.7486 50.8215)" fill="#FFFFFF" width="2.266" height="35.736"/>
	<path fill="#FFFFFF" d="M21.23,2.852c-2.469,0-4.471,2-4.471,4.468c0,2.469,2.002,4.47,4.471,4.47c2.468,0,4.47-2.001,4.47-4.47
		C25.7,4.852,23.698,2.852,21.23,2.852 M21.23,9.56c-1.237,0-2.24-1.002-2.24-2.24c0-1.237,1.003-2.239,2.24-2.239
		c1.237,0,2.24,1.002,2.24,2.239C23.47,8.558,22.467,9.56,21.23,9.56"/>
	<rect x="3.23" y="43.692" fill="#FFFFFF" width="13.846" height="8.307"/>
	<rect x="3.231" y="24.863" fill="#FFFFFF" width="8.307" height="27.137"/>
	<rect x="17.077" y="17.137" fill="#FFFFFF" width="8.307" height="26.556"/>
	<rect x="60.781" y="28.174" fill="#FFFFFF" width="8.306" height="27.134"/>
	<polygon fill="#FFFFFF" points="47.89,49.793 38.272,49.791 28.557,22.655 37.921,22.655 43.073,41.467 48.245,22.655 
		57.607,22.655 	"/>
	<path fill="#FFFFFF" d="M85.604,22.05c-4.23,0.001-8.31,0.989-10.724,1.924l2.014,5.424c1.964-0.788,5.084-1.626,7.703-1.627
		c2.818,0.001,4.33,0.985,4.33,3.107l-0.002,1.034c-8.206,0.445-15.556,2.071-15.556,9.124c0,5.311,3.709,8.371,11.205,8.74
		l-0.035,0.014l0.588,0.002c0.34,0.01,0.676,0.023,1.033,0.023c0.322,0,0.643-0.014,0.965-0.023h9.605v-1.902V34.138v-2.274
		C96.729,24.811,93.004,22.051,85.604,22.05 M90.602,42.705h-3.15v3.15h-3.33v-3.15h-3.152v-3.328h3.152v-3.153h3.33v3.153h3.15
		V42.705z"/>
</g>
</svg>
